# xmcd
#
# Track frame offsets:
# 150
# 8447
# 19248
# 35429
#
# Disc length: 658 seconds
#
# Revision: 1
# Processed by: cddbd v1.5.2PL0 Copyright (c) Steve Scherf et al.
# Submitted via: CedeCatalogueitor 2.6.0.6 http://personales.ya.com/cdcatalogueitor
#
DISCID=20029004
DTITLE=The Loves - XS+OS
DYEAR=1900
DGENRE=
TTITLE0=Xs And Os
TTITLE1=She'll Break Your Heart... Again
TTITLE2=My Swee Drunken Blues
TTITLE3=Nao Va Se Perder Por Ai
EXTD=
EXTT0=
EXTT1=
EXTT2=
EXTT3=
PLAYORDER=
